<?xml version="1.0" encoding="utf-8"?>
<!-- created with bpmn-js / http://bpmn.io -->
<!DOCTYPE svg PUBLIC "-//W3C//DTD SVG 1.1//EN" "http://www.w3.org/Graphics/SVG/1.1/DTD/svg11.dtd">
<svg xmlns="http://www.w3.org/2000/svg" xmlns:xlink="http://www.w3.org/1999/xlink" width="314" height="333" viewBox="287 -56 314 333" version="1.1"><defs><marker id="sequenceflow-end-white-black" viewBox="0 0 20 20" refX="11" refY="10" markerWidth="10" markerHeight="10" orient="auto"><path d="M 1 5 L 11 10 L 1 15 Z" style="fill: black; stroke-width: 1px; stroke-linecap: round; stroke-dasharray: 10000, 1; stroke: black;"></path></marker></defs><g class="djs-group"><g class="djs-element djs-shape" data-element-id="Task_1l06314" style="display: block;" transform="translate(293 80)"><g class="djs-visual"><rect x="0" y="0" width="100" height="80" rx="10" ry="10" style="stroke: rgb(251, 140, 0); stroke-width: 2px; fill: rgb(255, 224, 178);"/><text class="djs-label" style="font-family: Arial, sans-serif; font-size: 12px; fill: rgb(251, 140, 0);"><tspan x="17.6484375" y="43.375">Mail senden</tspan></text></g><rect x="0" y="0" width="100" height="80" class="djs-hit" style="fill: none; stroke-opacity: 0; stroke: white; stroke-width: 15px;"/><rect x="-6" y="-6" width="112" height="92" class="djs-outline" style="fill: none;"/></g></g><g class="djs-group"><g class="djs-element djs-shape" data-element-id="ExclusiveGateway_1psmlsq" style="display: block;" transform="translate(463 95)"><g class="djs-visual"><polygon points="25,0 50,25 25,50 0,25" style="stroke: rgb(30, 136, 229); stroke-width: 2px; fill: rgb(187, 222, 251);"/><path d="m 16,15 7.42857142857143,9.714285714285715 -7.42857142857143,9.714285714285715 3.428571428571429,0 5.714285714285715,-7.464228571428572 5.714285714285715,7.464228571428572 3.428571428571429,0 -7.42857142857143,-9.714285714285715 7.42857142857143,-9.714285714285715 -3.428571428571429,0 -5.714285714285715,7.464228571428572 -5.714285714285715,-7.464228571428572 -3.428571428571429,0 z" style="fill: rgb(30, 136, 229); stroke-width: 1px; stroke: rgb(30, 136, 229);"/></g><rect x="0" y="0" width="50" height="50" class="djs-hit" style="fill: none; stroke-opacity: 0; stroke: white; stroke-width: 15px;"/><rect x="-6" y="-6" width="62" height="62" class="djs-outline" style="fill: none;"/></g></g><g class="djs-group"><g class="djs-element djs-shape" data-element-id="Task_12n2f0y" style="display: block;" transform="translate(363 191)"><g class="djs-visual"><rect x="0" y="0" width="100" height="80" rx="10" ry="10" style="stroke: rgb(251, 140, 0); stroke-width: 2px; fill: rgb(255, 224, 178);"/><text class="djs-label" style="font-family: Arial, sans-serif; font-size: 12px; fill: rgb(251, 140, 0);"><tspan x="20.3203125" y="36.625">10 Minuten </tspan><tspan x="31.9921875" y="50.125">warten </tspan></text></g><rect x="0" y="0" width="100" height="80" class="djs-hit" style="fill: none; stroke-opacity: 0; stroke: white; stroke-width: 15px;"/><rect x="-6" y="-6" width="112" height="92" class="djs-outline" style="fill: none;"/></g></g><g class="djs-group"><g class="djs-element djs-shape" data-element-id="StartEvent_1" style="display: block;" transform="translate(325 -26)"><g class="djs-visual"><circle cx="18" cy="18" r="18" style="stroke: black; stroke-width: 2px; fill: white;"/></g><rect x="0" y="0" width="36" height="36" class="djs-hit" style="fill: none; stroke-opacity: 0; stroke: white; stroke-width: 15px;"/><rect x="-6" y="-6" width="48" height="48" class="djs-outline" style="fill: none;"/></g></g><g class="djs-group"><g class="djs-element djs-shape" data-element-id="EndEvent_1kdz661" style="display: block;" transform="translate(470 -26)"><g class="djs-visual"><circle cx="18" cy="18" r="18" style="stroke: black; stroke-width: 4px; fill: white;"/></g><rect x="0" y="0" width="36" height="36" class="djs-hit" style="fill: none; stroke-opacity: 0; stroke: white; stroke-width: 15px;"/><rect x="-6" y="-6" width="48" height="48" class="djs-outline" style="fill: none;"/></g></g><g class="djs-group"><g class="djs-element djs-connection" data-element-id="SequenceFlow_156ilxz" style="display: block;"><g class="djs-visual"><path d="m  343,10L343,80 " style="fill: none; stroke-width: 2px; stroke: black; stroke-linejoin: round; marker-end: url('#sequenceflow-end-white-black');"/></g><polyline points="343,10 343,80 " class="djs-hit" style="fill: none; stroke-opacity: 0; stroke: white; stroke-width: 15px;"/><rect x="337" y="4" width="12" height="82" class="djs-outline" style="fill: none;"/></g></g><g class="djs-group"><g class="djs-element djs-connection" data-element-id="SequenceFlow_1kf0kdx" style="display: block;"><g class="djs-visual"><path d="m  393,120L429,120 L429,120 L463,120 " style="fill: none; stroke-width: 2px; stroke: black; stroke-linejoin: round; marker-end: url('#sequenceflow-end-white-black');"/></g><polyline points="393,120 429,120 429,120 463,120 " class="djs-hit" style="fill: none; stroke-opacity: 0; stroke: white; stroke-width: 15px;"/><rect x="387" y="114" width="82" height="12" class="djs-outline" style="fill: none;"/></g></g><g class="djs-group"><g class="djs-element djs-connection" data-element-id="SequenceFlow_0rm4q2u" style="display: block;"><g class="djs-visual"><path d="m  488,145L488,231 L465,231 " style="fill: none; stroke-width: 2px; stroke: black; stroke-linejoin: round; marker-end: url('#sequenceflow-end-white-black');"/></g><polyline points="488,145 488,231 465,231 " class="djs-hit" style="fill: none; stroke-opacity: 0; stroke: white; stroke-width: 15px;"/><rect x="459" y="139" width="35" height="98" class="djs-outline" style="fill: none;"/></g></g><g class="djs-group"><g class="djs-element djs-shape" data-element-id="SequenceFlow_1kf0kdx_label" style="display: none;" transform="translate(444 113.5)"><g class="djs-visual"><text class="djs-label" style="font-family: Arial, sans-serif; font-size: 11px;"><tspan x="0" y="12.5"/></text></g><rect x="0" y="0" width="0" height="13" class="djs-hit" style="fill: none; stroke-opacity: 0; stroke: white; stroke-width: 15px;"/><rect x="-6" y="-6" width="12" height="25" class="djs-outline" style="fill: none;"/></g></g><g class="djs-group"><g class="djs-element djs-connection" data-element-id="SequenceFlow_1ebwiih" style="display: block;"><g class="djs-visual"><path d="m  488,95L488,10 " style="fill: none; stroke-width: 2px; stroke: black; stroke-linejoin: round; marker-end: url('#sequenceflow-end-white-black');"/></g><polyline points="488,95 488,10 " class="djs-hit" style="fill: none; stroke-opacity: 0; stroke: white; stroke-width: 15px;"/><rect x="482" y="4" width="12" height="97" class="djs-outline" style="fill: none;"/></g></g><g class="djs-group"><g class="djs-element djs-connection" data-element-id="SequenceFlow_1ai3cs7" style="display: block;"><g class="djs-visual"><path d="m  363,231L343,231 L343,160 " style="fill: none; stroke-width: 2px; stroke: black; stroke-linejoin: round; marker-end: url('#sequenceflow-end-white-black');"/></g><polyline points="363,231 343,231 343,160 " class="djs-hit" style="fill: none; stroke-opacity: 0; stroke: white; stroke-width: 15px;"/><rect x="337" y="154" width="32" height="83" class="djs-outline" style="fill: none;"/></g></g><g class="djs-group"><g class="djs-element djs-shape" data-element-id="SequenceFlow_0rm4q2u_label" style="display: block;" transform="translate(498 179)"><g class="djs-visual"><text class="djs-label" style="font-family: Arial, sans-serif; font-size: 11px;"><tspan x="0" y="12.5">Nein</tspan></text></g><rect x="0" y="0" width="23" height="13" class="djs-hit" style="fill: none; stroke-opacity: 0; stroke: white; stroke-width: 15px;"/><rect x="-6" y="-6" width="35" height="25" class="djs-outline" style="fill: none;"/></g></g><g class="djs-group"><g class="djs-element djs-shape" data-element-id="SequenceFlow_1ai3cs7_label" style="display: none;" transform="translate(353 209.5)"><g class="djs-visual"><text class="djs-label" style="font-family: Arial, sans-serif; font-size: 11px;"><tspan x="0" y="12.5"/></text></g><rect x="0" y="0" width="0" height="13" class="djs-hit" style="fill: none; stroke-opacity: 0; stroke: white; stroke-width: 15px;"/><rect x="-6" y="-6" width="12" height="25" class="djs-outline" style="fill: none;"/></g></g><g class="djs-group"><g class="djs-element djs-shape" data-element-id="SequenceFlow_156ilxz_label" style="display: none;" transform="translate(358 38.5)"><g class="djs-visual"><text class="djs-label" style="font-family: Arial, sans-serif; font-size: 11px;"><tspan x="0" y="12.5"/></text></g><rect x="0" y="0" width="0" height="13" class="djs-hit" style="fill: none; stroke-opacity: 0; stroke: white; stroke-width: 15px;"/><rect x="-6" y="-6" width="12" height="25" class="djs-outline" style="fill: none;"/></g></g><g class="djs-group"><g class="djs-element djs-shape" data-element-id="SequenceFlow_1ebwiih_label" style="display: block;" transform="translate(502 45)"><g class="djs-visual"><text class="djs-label" style="font-family: Arial, sans-serif; font-size: 11px;"><tspan x="0" y="12.5">Ja</tspan></text></g><rect x="0" y="0" width="12" height="13" class="djs-hit" style="fill: none; stroke-opacity: 0; stroke: white; stroke-width: 15px;"/><rect x="-6" y="-6" width="24" height="25" class="djs-outline" style="fill: none;"/></g></g><g class="djs-group"><g class="djs-element djs-shape" data-element-id="ExclusiveGateway_1psmlsq_label" style="display: block;" transform="translate(520 113)"><g class="djs-visual"><text class="djs-label" style="font-family: Arial, sans-serif; font-size: 11px;"><tspan x="0" y="12.5">Mail erfolgreich </tspan><tspan x="14.6640625" y="25">gesendet </tspan></text></g><rect x="0" y="0" width="75" height="25" class="djs-hit" style="fill: none; stroke-opacity: 0; stroke: white; stroke-width: 15px;"/><rect x="-6" y="-6" width="87" height="37" class="djs-outline" style="fill: none;"/></g></g><g class="djs-group"><g class="djs-element djs-shape" data-element-id="StartEvent_1_label" style="display: block;" transform="translate(312 -50)"><g class="djs-visual"><text class="djs-label" style="font-family: Arial, sans-serif; font-size: 11px;"><tspan x="0" y="12.5">Prozessstart</tspan></text></g><rect x="0" y="0" width="62" height="13" class="djs-hit" style="fill: none; stroke-opacity: 0; stroke: white; stroke-width: 15px;"/><rect x="-6" y="-6" width="74" height="25" class="djs-outline" style="fill: none;"/></g></g><g class="djs-group"><g class="djs-element djs-shape" data-element-id="EndEvent_1kdz661_label" style="display: block;" transform="translate(455 -50)"><g class="djs-visual"><text class="djs-label" style="font-family: Arial, sans-serif; font-size: 11px;"><tspan x="0" y="12.5">Prozessende</tspan></text></g><rect x="0" y="0" width="65" height="13" class="djs-hit" style="fill: none; stroke-opacity: 0; stroke: white; stroke-width: 15px;"/><rect x="-6" y="-6" width="77" height="25" class="djs-outline" style="fill: none;"/></g></g><g class="djs-drag-group" style="pointer-events: none;" transform="translate(-1 5)"/><g class="djs-drag-group" style="pointer-events: none;" transform="translate(-2 -5)"/><g class="djs-drag-group" style="pointer-events: none;" transform="translate(-13 0)"/><g class="djs-drag-group" style="pointer-events: none;" transform="translate(-82 -11)"/><g class="djs-drag-group" style="pointer-events: none;" transform="translate(4 -309)"/><g class="djs-drag-group" style="pointer-events: none;" transform="translate(73 -2)"/><g class="djs-drag-group" style="pointer-events: none;" transform="translate(10 59)"/><g class="djs-drag-group" style="pointer-events: none;" transform="translate(-3 -45)"/><g class="djs-drag-group" style="pointer-events: none;" transform="translate(-4 -33)"/><g class="djs-drag-group" style="pointer-events: none;" transform="translate(-17 21)"/><g class="djs-drag-group" style="pointer-events: none;" transform="translate(6 -3)"/><g class="djs-drag-group" style="pointer-events: none;" transform="translate(-16 -28)"/><g class="djs-drag-group" style="pointer-events: none;" transform="translate(22 0)"/><g class="djs-drag-group" style="pointer-events: none;" transform="translate(12 0)"/><g class="djs-drag-group" style="pointer-events: none;" transform="translate(0 31)"/><g class="djs-drag-group" style="pointer-events: none;" transform="translate(-8 0)"/><g class="djs-drag-group" style="pointer-events: none;" transform="translate(-7 2)"/><g class="djs-drag-group" style="pointer-events: none;" transform="translate(51 0)"/><g class="djs-drag-group" style="pointer-events: none;" transform="translate(-40 1)"/><g class="djs-drag-group" style="pointer-events: none;" transform="translate(-14 -1)"/><g class="djs-drag-group" style="pointer-events: none;" transform="translate(8 -33)"/><g class="djs-drag-group" style="pointer-events: none;" transform="translate(27 -50)"/><g class="djs-drag-group" style="pointer-events: none;" transform="translate(2 5)"/><g class="djs-drag-group" style="pointer-events: none;" transform="translate(-1 -72)"/><g class="djs-drag-group" style="pointer-events: none;" transform="translate(-6 0)"/><g class="djs-drag-group" style="pointer-events: none;" transform="translate(85 111)"/><g class="djs-drag-group" style="pointer-events: none;" transform="translate(59 -198)"/><g class="djs-drag-group" style="pointer-events: none;" transform="translate(-161 102)"/><g class="djs-drag-group" style="pointer-events: none;" transform="translate(152 -127.993)"/><g class="djs-drag-group" style="pointer-events: none;" transform="translate(-136 -128)"/><g class="djs-drag-group" style="pointer-events: none;" transform="translate(34 -1)"/><g class="djs-drag-group" style="pointer-events: none;" transform="translate(70 37)"/><g class="djs-drag-group" style="pointer-events: none;" transform="translate(0 -60)"/><g class="djs-drag-group" style="pointer-events: none;" transform="translate(-1 -65)"/><g class="djs-drag-group" style="pointer-events: none;" transform="translate(0 2)"/></svg>