<?xml version="1.0" encoding="UTF-8" standalone="no"?>
<svg
   xmlns:dc="http://purl.org/dc/elements/1.1/"
   xmlns:cc="http://creativecommons.org/ns#"
   xmlns:rdf="http://www.w3.org/1999/02/22-rdf-syntax-ns#"
   xmlns:svg="http://www.w3.org/2000/svg"
   xmlns="http://www.w3.org/2000/svg"
   xmlns:xlink="http://www.w3.org/1999/xlink"
   enable-background="new -26.5 23 100 100"
   id="malecostume_1_"
   version="1.1"
   viewBox="-26.5 23 100 100"
   xml:space="preserve"><metadata
     id="metadata47"><rdf:RDF><cc:Work
         rdf:about=""><dc:format>image/svg+xml</dc:format><dc:type
           rdf:resource="http://purl.org/dc/dcmitype/StillImage" /><dc:title></dc:title></cc:Work></rdf:RDF></metadata><defs
     id="defs45" /><g
     id="g3"><rect
       fill="#F5EEE5"
       height="100"
       width="100"
       x="-26.5"
       y="23"
       id="rect5" /><path
       d="M38.5,98.9l27.9,7.7c3.2,1.1,5.7,3.5,7.1,6.6v9.8h-100v-9.8c1.3-3.1,3.9-5.5,7.1-6.6l27.9-7.7V84h30V98.9z    "
       fill="#D4B08C"
       id="path7" /><g
       id="g9"><defs
         id="defs11"><path
           d="M38.5,98.9l27.9,7.7c3.2,1.1,5.7,3.5,7.1,6.6v9.8h-100v-9.8c1.3-3.1,3.9-5.5,7.1-6.6l27.9-7.7V84h30V98.9      z"
           id="SVGID_1_" /></defs><clipPath
         id="SVGID_2_"><use
           overflow="visible"
           xlink:href="#SVGID_1_"
           id="use15" /></clipPath><polygon
         clip-path="url(#SVGID_2_)"
         fill="#1E1E23"
         points="23.7,103 16.5,103 11.7,98 -26.5,98 -26.5,123 23.7,123 73.8,123      73.8,98 35.7,98 30.9,103    "
         id="polygon17" /><polygon
         clip-path="url(#SVGID_2_)"
         fill="#C1CAD4"
         points="23.5,103 24.5,103 39.2,95.3 33.4,124.2 23.5,123.1 13.6,124.2      7.8,95.3 22.5,103    "
         id="polygon19" /><polygon
         clip-path="url(#SVGID_2_)"
         fill="#216DD9"
         points="21,112 26,112 30,124 17,124    "
         id="polygon21" /><polygon
         clip-path="url(#SVGID_2_)"
         fill="#249CF2"
         points="13,103 34,103 26,112 21,112    "
         id="polygon23" /><path
         clip-path="url(#SVGID_2_)"
         d="M39,93l-14.4,10l10.8,11l4.1-20L39,93z M8,93l14.4,10l-10.8,11L7.5,94L8,93z"
         fill="#FFFFFF"
         id="path25" /></g><path
       d="M23.5,97c-1.5,0-3.5-0.3-4.8-0.9c-1.6-0.7-7.2-4.6-9.1-6.3c-2.5-2.3-3.8-5.1-4.2-10S3.5,57.5,3.5,53.5    C3.5,47.8,8.6,39,23.5,39l0,0l0,0l0,0l0,0c14.8,0,19.9,8.8,19.9,14.5c0,4-1.5,21.5-1.9,26.4s-1.6,7.7-4.2,10    c-1.9,1.7-7.6,5.6-9.1,6.3C27,96.7,25,97,23.5,97L23.5,97z"
       fill="#F2CEA5"
       id="path27" /><path
       d="M 30.395627,84.507195 16.5,83 c -0.397668,-0.04313 -0.159655,0.356121 0.04034,0.756121 0,0 0,0 7.309889,0.905003 6.899955,0.786794 6.899955,0.786794 6.899955,0.786794 -0.11313,-0.342347 0.04311,-0.89759 -0.354562,-0.940723 z"
       id="path29"
       style="fill:#a3705f" /><circle
       cx="32.5"
       cy="68"
       fill="#262626"
       r="2"
       id="circle31" /><circle
       cx="14.5"
       cy="68"
       fill="#262626"
       r="2"
       id="circle33" /><path
       d="M 19.519449,67.53193 C 18.22119,67.167344 18.393761,67.326928 15.035413,66.497454 10.298258,65.327431 10.370827,65.154862 9.6451378,65.037155 l 0.2770683,-1.498257 c 0.1725689,-0.317707 2.3433959,0.360344 5.4034829,1.086077 4.475863,1.061436 4.495501,0.979525 5.676052,1.426404 z"
       id="path35"
       style="fill:#cc9872" /><path
       d="m 24.5,76 1.814224,-7.693759 c 0.573775,-2.433266 2.862844,-3.351785 8.362844,-3.451785 5.5,0 1.602467,0.08096 3.081277,-0.109318 l 0.131928,-0.170827 c 0,0 1.579119,2.621311 -2.520881,2.521311 -4.1,0 -6.639894,0.508847 -7.055172,2.054015 L 26.5,75.9 Z"
       id="path37"
       style="fill:#bb8660" /><path
       d="M42.3,71.2c0,0,0.8-6.3,3.7-7.2c0.4-1.8,1.5-7,1.5-9.9s-0.3-5.7-1.9-8.1c-1.8-2.6-5.6-4.1-7.6-4.1    c-2.3,1.4-7.7,4.6-9.4,6.5c-0.9,1,0.4,1.8,0.4,1.8s1.2-0.5,1.7-0.6c2.5-0.7,8-1.2,9.7,1.3c2.1,3,2.1,11.8,2.1,13.1    C42.5,65.2,42.3,71.2,42.3,71.2z"
       fill="#D98C21"
       id="path39" /><path
       d="M1,64c2.9,1,3.7,7.2,3.7,7.2s-0.2-6-0.2-7.2c0-1.6,0.2-9.1,3.4-12.7c3.6-4,8.4-5.3,11.1-3.5    c1.4,0.9,6.1,5.5,11.1,1.7c3-2.3,8.5-7.5,8.5-7.5s-2.9-8.9-16.1-7.9c-5.6,0.5-11.8-0.9-11.8-0.9s-0.1,2.5,0.9,3.8    C3.3,39.4,0.6,45.4-0.2,50c-0.2,0.9-0.3,1.8-0.3,2.7c0,0.5,0,1,0,1.4C-0.5,57,0.6,62.1,1,64z"
       fill="#E6A422"
       id="path41" /></g></svg>