<?xml version="1.0" encoding="UTF-8" standalone="no"?>
<svg
   xmlns:dc="http://purl.org/dc/elements/1.1/"
   xmlns:cc="http://creativecommons.org/ns#"
   xmlns:rdf="http://www.w3.org/1999/02/22-rdf-syntax-ns#"
   xmlns:svg="http://www.w3.org/2000/svg"
   xmlns="http://www.w3.org/2000/svg"
   xmlns:xlink="http://www.w3.org/1999/xlink"
   xml:space="preserve"
   viewBox="-26.5 23 100 100"
   version="1.1"
   id="malecostume_1_"
   enable-background="new -26.5 23 100 100"><metadata
     id="metadata47"><rdf:RDF><cc:Work
         rdf:about=""><dc:format>image/svg+xml</dc:format><dc:type
           rdf:resource="http://purl.org/dc/dcmitype/StillImage" /><dc:title></dc:title></cc:Work></rdf:RDF></metadata><defs
     id="defs45" /><g
     id="g3"><rect
       id="rect5"
       y="23"
       x="-26.5"
       width="100"
       height="100"
       fill="#F5EEE5" /><path
       id="path7"
       fill="#D4B08C"
       d="M38.5,98.9l27.9,7.7c3.2,1.1,5.7,3.5,7.1,6.6v9.8h-100v-9.8c1.3-3.1,3.9-5.5,7.1-6.6l27.9-7.7V84h30V98.9z    " /><g
       id="g9"><defs
         id="defs11"><path
           id="SVGID_1_"
           d="M38.5,98.9l27.9,7.7c3.2,1.1,5.7,3.5,7.1,6.6v9.8h-100v-9.8c1.3-3.1,3.9-5.5,7.1-6.6l27.9-7.7V84h30V98.9      z" /></defs><clipPath
         id="SVGID_2_"><use
           id="use15"
           xlink:href="#SVGID_1_"
           overflow="visible" /></clipPath><polygon
         id="polygon17"
         points="23.7,103 16.5,103 11.7,98 -26.5,98 -26.5,123 23.7,123 73.8,123      73.8,98 35.7,98 30.9,103    "
         fill="#1E1E23"
         clip-path="url(#SVGID_2_)" /><polygon
         id="polygon19"
         points="23.5,103 24.5,103 39.2,95.3 33.4,124.2 23.5,123.1 13.6,124.2      7.8,95.3 22.5,103    "
         fill="#C1CAD4"
         clip-path="url(#SVGID_2_)" /><polygon
         id="polygon21"
         points="21,112 26,112 30,124 17,124    "
         fill="#216DD9"
         clip-path="url(#SVGID_2_)" /><polygon
         id="polygon23"
         points="13,103 34,103 26,112 21,112    "
         fill="#249CF2"
         clip-path="url(#SVGID_2_)" /><path
         id="path25"
         fill="#FFFFFF"
         d="M39,93l-14.4,10l10.8,11l4.1-20L39,93z M8,93l14.4,10l-10.8,11L7.5,94L8,93z"
         clip-path="url(#SVGID_2_)" /></g><path
       id="path27"
       fill="#F2CEA5"
       d="M23.5,97c-1.5,0-3.5-0.3-4.8-0.9c-1.6-0.7-7.2-4.6-9.1-6.3c-2.5-2.3-3.8-5.1-4.2-10S3.5,57.5,3.5,53.5    C3.5,47.8,8.6,39,23.5,39l0,0l0,0l0,0l0,0c14.8,0,19.9,8.8,19.9,14.5c0,4-1.5,21.5-1.9,26.4s-1.6,7.7-4.2,10    c-1.9,1.7-7.6,5.6-9.1,6.3C27,96.7,25,97,23.5,97L23.5,97z" /><path
       style="fill:#a3705f"
       id="path29"
       d="M 30.395627,84.507195 16.5,83 c -0.397668,-0.04313 -0.159655,0.356121 0.04034,0.756121 0,0 0,0 7.309889,0.905003 6.899955,0.786794 6.899955,0.786794 6.899955,0.786794 -0.11313,-0.342347 0.04311,-0.89759 -0.354562,-0.940723 z" /><circle
       id="circle31"
       r="2"
       fill="#262626"
       cy="68"
       cx="32.5" /><circle
       id="circle33"
       r="2"
       fill="#262626"
       cy="68"
       cx="14.5" /><path
       style="fill:#cc9872"
       id="path35"
       d="M 20.1,65.5 C 19.6,64.7 18.2,65.118644 14.6,65.118644 10.5,65.118644 9.5,65.3 9.5,65.4 L 7.6,64.7 c 0.1,-0.1 1.4,-1.163559 7,-1.163559 4.6,0 6.6,-0.03644 7.2,1.063559 z" /><path
       style="fill:#bb8660"
       id="path37"
       d="m 24.5,76 0,-9 c 0,-2.5 2.5,-3.569492 8,-3.669492 5.5,0 6.9,1.169492 7,1.269492 l -1.9,0.7 c 0,-0.1 -1.105932,-0.499153 -5.205932,-0.599153 C 28.294068,64.700847 26.5,65.3 26.5,66.9 l 0,9 z" /><path
       id="path39"
       fill="#D98C21"
       d="M42.3,71.2c0,0,0.8-6.3,3.7-7.2c0.4-1.8,1.5-7,1.5-9.9s-0.3-5.7-1.9-8.1c-1.8-2.6-5.6-4.1-7.6-4.1    c-2.3,1.4-7.7,4.6-9.4,6.5c-0.9,1,0.4,1.8,0.4,1.8s1.2-0.5,1.7-0.6c2.5-0.7,8-1.2,9.7,1.3c2.1,3,2.1,11.8,2.1,13.1    C42.5,65.2,42.3,71.2,42.3,71.2z" /><path
       id="path41"
       fill="#E6A422"
       d="M1,64c2.9,1,3.7,7.2,3.7,7.2s-0.2-6-0.2-7.2c0-1.6,0.2-9.1,3.4-12.7c3.6-4,8.4-5.3,11.1-3.5    c1.4,0.9,6.1,5.5,11.1,1.7c3-2.3,8.5-7.5,8.5-7.5s-2.9-8.9-16.1-7.9c-5.6,0.5-11.8-0.9-11.8-0.9s-0.1,2.5,0.9,3.8    C3.3,39.4,0.6,45.4-0.2,50c-0.2,0.9-0.3,1.8-0.3,2.7c0,0.5,0,1,0,1.4C-0.5,57,0.6,62.1,1,64z" /></g></svg>