<?xml version="1.0" encoding="UTF-8" standalone="no"?>
<svg
   xmlns:dc="http://purl.org/dc/elements/1.1/"
   xmlns:cc="http://creativecommons.org/ns#"
   xmlns:rdf="http://www.w3.org/1999/02/22-rdf-syntax-ns#"
   xmlns:svg="http://www.w3.org/2000/svg"
   xmlns="http://www.w3.org/2000/svg"
   xmlns:xlink="http://www.w3.org/1999/xlink"
   xmlns:sodipodi="http://sodipodi.sourceforge.net/DTD/sodipodi-0.dtd"
   xmlns:inkscape="http://www.inkscape.org/namespaces/inkscape"
   enable-background="new -208.5 20.5 100 100"
   id="Layer_1"
   version="1.1"
   viewBox="-208.5 20.5 100 100"
   xml:space="preserve"
   inkscape:version="0.91 r13725"
   sodipodi:docname="developer_happy.svg"><metadata
     id="metadata3632"><rdf:RDF><cc:Work
         rdf:about=""><dc:format>image/svg+xml</dc:format><dc:type
           rdf:resource="http://purl.org/dc/dcmitype/StillImage" /></cc:Work></rdf:RDF></metadata><defs
     id="defs3630" /><sodipodi:namedview
     pagecolor="#ffffff"
     bordercolor="#666666"
     borderopacity="1"
     objecttolerance="10"
     gridtolerance="10"
     guidetolerance="10"
     inkscape:pageopacity="0"
     inkscape:pageshadow="2"
     inkscape:window-width="1610"
     inkscape:window-height="934"
     id="namedview3628"
     showgrid="false"
     inkscape:zoom="6.89"
     inkscape:cx="33.92887"
     inkscape:cy="44.200631"
     inkscape:window-x="240"
     inkscape:window-y="34"
     inkscape:window-maximized="0"
     inkscape:current-layer="Layer_1" /><g
     id="g3580"><rect
       fill="#F5EEE5"
       height="100"
       width="100"
       x="-208.5"
       y="20.5"
       id="rect3582" /><path
       d="M-143.5,96.4l27.9,7.7c3.2,1.1,5.7,3.5,7.1,6.6v9.8h-100v-9.8c1.3-3.1,3.9-5.5,7.1-6.6l27.9-7.7V81.5h30    V96.4z"
       fill="#D4B08C"
       id="path3584" /><g
       id="g3586"><defs
         id="defs3588"><path
           d="M-143.5,96.4l27.9,7.7c3.2,1.1,5.7,3.5,7.1,6.6v9.8h-100v-9.8c1.3-3.1,3.9-5.5,7.1-6.6l27.9-7.7V81.5h30      V96.4z"
           id="SVGID_1_" /></defs><clipPath
         id="SVGID_2_"><use
           overflow="visible"
           xlink:href="#SVGID_1_"
           id="use3592" /></clipPath><path
         clip-path="url(#SVGID_2_)"
         d="M-158.3,100.5h-7.2l-8-4.1l-35-0.9v25h50.2h50.2v-25h-38.2l-4.8,5H-158.3z"
         fill="#1E1F24"
         id="path3594" /></g><path
       d="M-158.5,94.5c-1.5,0-3.5-0.3-4.8-0.9c-1.6-0.7-7.2-4.6-9.1-6.3c-2.5-2.3-3.8-5.1-4.2-10    s-1.9-22.4-1.9-26.4c0-5.7,5.1-14.5,19.9-14.5c0,0,0,0,0,0c0,0,0,0,0,0c0,0,0,0,0,0c0,0,0,0,0,0c14.8,0,19.9,8.8,19.9,14.5    c0,4-1.5,21.5-1.9,26.4s-1.6,7.7-4.2,10c-1.9,1.7-7.6,5.6-9.1,6.3C-155,94.2-157,94.5-158.5,94.5L-158.5,94.5z"
       fill="#F2CEA5"
       id="path3596" /><g
       id="g3598"><defs
         id="defs3600"><path
           d="M-158.5,94.5c-1.5,0-3.5-0.3-4.8-0.9c-1.6-0.7-7.2-4.6-9.1-6.3c-2.5-2.3-3.8-5.1-4.2-10      s-1.9-22.4-1.9-26.4c0-5.7,5.1-14.5,19.9-14.5c0,0,0,0,0,0c0,0,0,0,0,0c0,0,0,0,0,0c0,0,0,0,0,0c14.8,0,19.9,8.8,19.9,14.5      c0,4-1.5,21.5-1.9,26.4s-1.6,7.7-4.2,10c-1.9,1.7-7.6,5.6-9.1,6.3C-155,94.2-157,94.5-158.5,94.5L-158.5,94.5z"
           id="SVGID_3_" /></defs><clipPath
         id="SVGID_4_"><use
           overflow="visible"
           xlink:href="#SVGID_3_"
           id="use3604" /></clipPath><path
         clip-path="url(#SVGID_4_)"
         d="M-147.5,81.5c-1-1.2-3-2.9-6.3-3s-2.5,1.9-4.7,2c0,0-0.1,0-0.1,0     c0,0,0,0-0.1,0c-2.1-0.1-1.3-2-4.7-2s-5.4,1.7-6.3,3l-8-11v27h19.1h19.1v-27L-147.5,81.5z M-154.5,88.5c-1.1-0.1-1.7-0.4-2-0.8     c0-0.6-0.4-1.3-2.1-1.2c-1.7-0.1-2,0.6-2.1,1.2c-0.3,0.4-0.9,0.8-2,0.8c-3.8-0.2-5-2.7-5-4.5s1.5-2.5,5-2.5c2.5,0,1.7,0.9,4,1     c0,0,0.1,0,0.1,0c0,0,0,0,0.1,0c2.3,0,1.5-1,4-1c3.5,0,5,0.7,5,2.5S-150.7,88.3-154.5,88.5z"
         fill="#2D2E35"
         id="path3606" /></g><path
       d="M-155.5,85.5h-6c-0.6,0-1-0.4-1-1s0.4-1,1-1h6c0.6,0,1,0.4,1,1S-154.9,85.5-155.5,85.5z"
       fill="#A3705F"
       id="path3608" /><path
       d="M-149.5,67.5c1.1,0,2-0.9,2-2s-0.9-2-2-2s-2,0.9-2,2S-150.6,67.5-149.5,67.5z M-167.5,67.5    c1.1,0,2-0.9,2-2s-0.9-2-2-2s-2,0.9-2,2S-168.6,67.5-167.5,67.5z"
       fill="#262626"
       id="path3610" /><path
       d="M-161.9,64c-0.5-0.8-1.9-2.5-5.5-2.5c-4.1,0-5.1,2.3-5.1,2.4l-1.9-0.7c0.1-0.1,1.4-3.6,7-3.6    c4.6,0,6.6,2.4,7.2,3.5L-161.9,64z"
       fill="#CC9872"
       id="path3612" /><path
       d="M-157.5,74.5c0-0.3,0-7.1,0-9c0-2.5,2.5-5.9,8-6c5.5,0,6.9,3.5,7,3.6l-1.9,0.7c0-0.1-1-2.3-5.1-2.4    c-4.1,0-6,2.4-6,4c0,1.9,0,8.9,0,9L-157.5,74.5z"
       fill="#BB8660"
       id="path3614" /><path
       d="M-173.4,94.9l1.7-2.8l12.9,5.9l13.1-4.9l2.2,2.2v6.5c0,0-10.8,10.6-15,10.7c-4.2,0-14.9-11.5-14.9-11.5    V94.9z"
       fill="#D4B08C"
       id="path3616" /><path
       d="M-143.5,96.4c-1,1-1.9,9.2-14.7,9.2c-12.7,0-14.3-8.1-15.3-9.1c0,0.9,0,4.1,0,6.1c0,9.7,6,15.9,8.3,18    h14.2c2.2-1.9,7.5-7.8,7.5-19C-143.5,99.6-143.5,98.7-143.5,96.4z"
       fill="#6B363E"
       id="path3618" /><circle
       cx="-158.5"
       cy="70.5"
       fill="none"
       r="50"
       id="circle3620" /><rect
       fill="#E1BC90"
       height="2"
       width="17.9"
       x="-167.4"
       y="50.5"
       id="rect3622" /><rect
       fill="#E1BC90"
       height="2"
       width="9.9"
       x="-163.4"
       y="54.5"
       id="rect3624" /><path
       d="M-139.4,65.5c0,0,0.1-13.1-5.5-20.3c-1.3,1.2-3.5,2.2-6.5,2.2s-5.9-1.1-9.3-2.8s-5.3-3.1-8.3-3.4    c-2,0.7-8.5,5.9-8.5,14.9s0.2,12.3,0.2,12.3s-4.2-5.7-4.2-14.3s4.8-14.8,10.7-15c2.4-2.2,7-3.8,11.9-3.8s14.5,2.4,18.5,9.2    C-134.5,54.4-139.4,65.5-139.4,65.5z"
       fill="#2D2E35"
       id="path3626" /></g><g
     id="Page-1"
     transform="matrix(1.3298706,0,0,1.3580585,-179.46714,43.061993)"
     style="fill:none;fill-rule:evenodd;stroke:none;stroke-width:1"><g
       id="icon-38-sunglasses"
       style="fill:#000000"
       transform="matrix(0.98540899,0,0,1,0.01459101,0)"><path
         id="sunglasses"
         d="M 15.018455,12.975438 C 10.651096,11.771907 4.4933354,11.82814 1.3256108,12.361913 c -0.3825176,0.06446 -0.44256467,1.822835 -0.1023726,1.884359 0.6260926,0.253201 0.8932089,0.88505 0.8932089,0.88505 0,0 0.1869468,0.560669 0.729861,2.84078 0.5429141,2.28011 1.8372137,2.553521 1.8372137,2.553521 0,0 1.5841696,0.392008 3.4116006,0.392008 1.827431,0 2.9205966,-0.08309 4.0909346,-0.668484 1.170339,-0.585395 1.681856,-2.215739 1.681856,-2.215739 0,0 0.589664,-1.404853 0.99562,-2.730428 0.127303,-0.415684 2.064559,-0.415684 2.191862,0 0.405956,1.325575 0.99562,2.730428 0.99562,2.730428 0,0 0.511517,1.630344 1.681856,2.215739 1.170338,0.585395 2.263504,0.668484 4.090934,0.668484 1.827431,0 3.411601,-0.392008 3.411601,-0.392008 0,0 1.2943,-0.273411 1.837214,-2.553521 0.542914,-2.280111 0.729861,-2.84078 0.729861,-2.84078 0,0 0.267116,-0.631849 0.893209,-0.88505 0.340192,-0.06152 0.280145,-1.819903 -0.102373,-1.884359 -3.167725,-0.533773 -9.325485,-0.590006 -13.692845,0.613525 -0.296374,0.06787 -1.585642,0.06787 -1.882017,0 z"
         inkscape:connector-curvature="0" /></g></g></svg>