<svg id="Ebene_2" data-name="Ebene 2" xmlns="http://www.w3.org/2000/svg" viewBox="0 0 452.08 411.49"><defs><style>.cls-1,.cls-2{fill:#444;stroke:#444;}.cls-1,.cls-3,.cls-5{stroke-miterlimit:10;}.cls-2{stroke-linejoin:round;stroke-width:12px;}.cls-3,.cls-4{fill:#fff;}.cls-3,.cls-5{stroke:#fff;}.cls-5{fill:none;stroke-width:10px;}</style></defs><title>toolbox_hell</title><path class="cls-1" d="M429,128.38H90c-70.3,0-53,94.6-53,94.6H482S499.3,128.38,429,128.38Z" transform="translate(-33.51 -50)"/><polygon class="cls-2" points="342.49 7.67 342.49 6.23 126.96 6.23 104.49 6 104.72 27 104.72 66.74 126.96 66.74 126.96 27 320.26 27 320.26 68.18 342.51 68.18 342.51 7.67 342.49 7.67"/><path class="cls-1" d="M482.11,366.38C479.32,335.91,482,244,482,244H37s2.77,91.91,0,122.38c-2.45,27-17.35,94.6,53,94.6H429.13C499.45,461,484.57,393.38,482.11,366.38Z" transform="translate(-33.51 -50)"/><path class="cls-3" d="M291.14,324.74l-14.46,8.81L252.54,323.5l-2.78-16L265,271c-.61.08-1.22.17-1.84.27a44.09,44.09,0,1,0,43.08,17.28Z" transform="translate(-33.51 -50)"/><path class="cls-4" d="M251.2,348.39l11.81,5-23.23,52.7-14.11.09,25.53-57.79M244,330.12l-39.84,90.2,44.82-.3,32.61-74L244,330.12Z" transform="translate(-33.51 -50)"/><rect class="cls-1" x="80.49" y="63" width="70" height="70" rx="12" ry="12"/><rect class="cls-1" x="296.49" y="62" width="70" height="70" rx="12" ry="12"/><rect class="cls-5" x="53.49" y="185" width="62" height="39" rx="12" ry="12"/><rect class="cls-5" x="335.49" y="189" width="62" height="39" rx="12" ry="12"/></svg>