<?xml version="1.0" encoding="iso-8859-1"?>
<!-- Generator: Adobe Illustrator 19.0.0, SVG Export Plug-In . SVG Version: 6.00 Build 0)  -->
<svg version="1.1" id="Layer_1" xmlns="http://www.w3.org/2000/svg" xmlns:xlink="http://www.w3.org/1999/xlink" x="0px" y="0px"
	 viewBox="0 0 511.998 511.998" style="enable-background:new 0 0 511.998 511.998;" xml:space="preserve">
<g>
	<rect x="4.657" y="80.997" style="fill:#FFE1C5;" width="53" height="356.34"/>
	<rect x="454.649" y="84.499" style="fill:#FFE1C5;" width="53" height="356.34"/>
</g>
<rect x="57.657" y="245.499" style="fill:#F2D6C0;" width="393.34" height="191.84"/>
<polygon style="fill:#CCD1D9;" points="318.671,74.668 183.343,114.012 183.343,180.011 337.343,130.668 "/>
<polygon style="fill:#965353;" points="296.671,156.012 226.671,174.667 254.327,245.339 323.343,241.339 "/>
<polygon style="fill:#ED5564;" points="409.342,104.668 346.671,240.011 423.341,240.011 447.341,180.011 454.653,124.012 "/>
<path style="fill:#FFCE54;" d="M150.016,184.011c-0.656-2-26.672-45.343-26.672-45.343l-62,47.343l-3.688,59.484l97.015-5.484
	C154.672,240.011,150.672,186.011,150.016,184.011z"/>
<path style="fill:#080808;" d="M447.997,65.653v38.265l-26.094-11.703c-2.25-1.016-4.656-1.531-7.124-1.531
	c-6.844,0-13.094,4.047-15.875,10.296l-3.312,7.344h-50.155L333.593,69.84c-1.734-5.625-7.703-8.781-13.344-7.047l-142.703,43.968
	c-1.141,0.344-2.203,0.891-3.125,1.562H64v-42.67H0v383.996h42.656H64h274.905c0.062,0.016,0.125,0.016,0.188,0.031
	c0.156,0,0.328,0,0.5,0c0.188,0,0.391-0.016,0.594-0.031h107.811h21.328h42.672V65.653H447.997z M429.497,141.262
	c-5.375-2.406-11.688,0-14.093,5.375l-40.219,89.687h-13.594l47.812-106.671h38.593v26.719l-35.843,79.952h-13.594l36.296-80.968
	C437.278,149.98,434.872,143.668,429.497,141.262z M447.997,208.527v27.796h-12.469L447.997,208.527z M386.029,129.652
	L339.78,232.807c-0.5,1.141-0.875,2.312-1.141,3.516h-9.578l-24.453-79.421l40.766-12.562c2.719-0.828,4.969-2.703,6.297-5.203
	c1.327-2.5,1.608-5.422,0.765-8.125l-0.406-1.359h33.999V129.652z M262.108,236.323l-18.672-60.578l40.781-12.562l22.531,73.14
	H262.108z M191.062,129.652h129.531L190.14,169.839L191.062,129.652z M316.343,86.325l6.781,22h-78.203L316.343,86.325z
	 M169.718,129.652l-1.25,54.5c-0.062,3.422,1.5,6.688,4.25,8.75c1.875,1.422,4.125,2.156,6.422,2.156
	c1.047,0,2.109-0.156,3.141-0.469l40.781-12.562l16.718,54.296h-70.031c0.469-6.609,0.062-14.109-1.281-22.468
	c-1.688-10.609-4.844-22.453-9.125-34.25c-3.906-10.75-8.562-21-13.156-28.843c-6.188-10.562-11.562-15.984-17.469-17.562
	c-1.281-0.344-2.656-0.531-4.094-0.531c-15.328,0-42.218,22.469-47.437,26.969c-5,4.296-9.375,8.406-13.188,12.312v-42.296h105.719
	V129.652z M107.969,210.636c-5.688-1.531-11.531,1.859-13.062,7.547l-4.844,18.14H64v-30.671c5.562-8.828,14.656-19,26.094-28.969
	c15.031-13.125,27.687-20.312,32.937-22.203c3.594,4.25,10.938,16.812,17.406,35.703c6.312,18.359,9.125,35.078,7.906,46.14H112.14
	l3.391-12.625C117.047,218.011,113.656,212.152,107.969,210.636z M42.657,428.321H21.329V86.997h21.328v149.327
	C42.657,236.324,42.657,428.321,42.657,428.321z M64,406.994h10.656c5.891,0,10.672-4.781,10.672-10.672
	s-4.781-10.672-10.672-10.672H64v-63.999h53.328c5.891,0,10.672-4.766,10.672-10.656s-4.781-10.672-10.672-10.672H64v-42.672
	h383.997v21.344h-31.999c-5.906,0-10.672,4.766-10.672,10.656s4.766,10.672,10.672,10.672h31.999v85.327h-63.999
	c-27.188,0-40.843,14.641-47.515,26.906c-3.078,5.655-4.891,11.233-5.984,15.765H64V406.994z M352.748,428.321
	c0.703-1.984,1.625-4.062,2.781-6.125c5.781-10.233,15.094-15.202,28.469-15.202h63.999v21.327H352.748z M490.653,428.321h-21.328
	V236.323V86.997h21.328V428.321z"/>
<g>
</g>
<g>
</g>
<g>
</g>
<g>
</g>
<g>
</g>
<g>
</g>
<g>
</g>
<g>
</g>
<g>
</g>
<g>
</g>
<g>
</g>
<g>
</g>
<g>
</g>
<g>
</g>
<g>
</g>
</svg>
